<svg xmlns="http://www.w3.org/2000/svg" xmlns:xlink="http://www.w3.org/1999/xlink" contentStyleType="text/css" data-diagram-type="SEQUENCE" height="1343px" preserveAspectRatio="none" style="width:553px;height:1343px;background:#FFFFFF;" version="1.1" viewBox="0 0 553 1343" width="553px" zoomAndPan="magnify"><title>Authentication Sequence Diagram</title><defs/><g><text fill="#000000" font-family="sans-serif" font-size="14" font-weight="bold" lengthAdjust="spacing" textLength="270.6348" x="142.8401" y="27.9951">Authentication Sequence Diagram</text><rect fill="none" height="444.5234" style="stroke:#000000;stroke-width:1.5;" width="403.7017" x="47.9102" y="164.7266"/><rect fill="none" height="75.3984" style="stroke:#000000;stroke-width:1.5;" width="383.7017" x="57.9102" y="349.7891"/><rect fill="none" height="298.7266" style="stroke:#000000;stroke-width:1.5;" width="537.3149" x="10" y="623.25"/><rect fill="none" height="105.6641" style="stroke:#000000;stroke-width:1.5;" width="270.5635" x="171.0483" y="691.6484"/><rect fill="none" height="309.5938" style="stroke:#000000;stroke-width:1.5;" width="386.2666" x="161.0483" y="935.9766"/><rect fill="none" height="90.5313" style="stroke:#000000;stroke-width:1.5;" width="270.5635" x="171.0483" y="1017.375"/><g><title>User</title><rect fill="#000000" fill-opacity="0.00000" height="1143.9766" width="8" x="34.9551" y="118.5938"/><line style="stroke:#181818;stroke-width:0.5;stroke-dasharray:5,5;" x1="38" x2="38" y1="118.5938" y2="1262.5703"/></g><g><title>Browser</title><rect fill="#000000" fill-opacity="0.00000" height="1143.9766" width="8" x="99.4297" y="118.5938"/><line style="stroke:#181818;stroke-width:0.5;stroke-dasharray:5,5;" x1="102.9102" x2="102.9102" y1="118.5938" y2="1262.5703"/></g><g><title>EHR</title><rect fill="#000000" fill-opacity="0.00000" height="1143.9766" width="8" x="198.5986" y="118.5938"/><line style="stroke:#181818;stroke-width:0.5;stroke-dasharray:5,5;" x1="202.0483" x2="202.0483" y1="118.5938" y2="1262.5703"/></g><g><title>Knooppunt</title><rect fill="#000000" fill-opacity="0.00000" height="1143.9766" width="8" x="382.5151" y="118.5938"/><line style="stroke:#181818;stroke-width:0.5;stroke-dasharray:5,5;" x1="386.4185" x2="386.4185" y1="118.5938" y2="1262.5703"/></g><g><title>Remote XIS</title><rect fill="#000000" fill-opacity="0.00000" height="1143.9766" width="8" x="485.4634" y="118.5938"/><line style="stroke:#181818;stroke-width:0.5;stroke-dasharray:5,5;" x1="488.6118" x2="488.6118" y1="118.5938" y2="1262.5703"/></g><g class="participant participant-head" data-participant="User"><text fill="#000000" font-family="sans-serif" font-size="14" lengthAdjust="spacing" textLength="31.9102" x="20" y="115.292">User</text><ellipse cx="38.9551" cy="50.7969" fill="#E2E2F0" rx="8" ry="8" style="stroke:#181818;stroke-width:0.5;"/><path d="M38.9551,58.7969 L38.9551,85.7969 M25.9551,66.7969 L51.9551,66.7969 M38.9551,85.7969 L25.9551,100.7969 M38.9551,85.7969 L51.9551,100.7969" fill="none" style="stroke:#181818;stroke-width:0.5;"/></g><g class="participant participant-tail" data-participant="User"><text fill="#000000" font-family="sans-serif" font-size="14" lengthAdjust="spacing" textLength="31.9102" x="20" y="1274.5654">User</text><ellipse cx="38.9551" cy="1286.3672" fill="#E2E2F0" rx="8" ry="8" style="stroke:#181818;stroke-width:0.5;"/><path d="M38.9551,1294.3672 L38.9551,1321.3672 M25.9551,1302.3672 L51.9551,1302.3672 M38.9551,1321.3672 L25.9551,1336.3672 M38.9551,1321.3672 L51.9551,1336.3672" fill="none" style="stroke:#181818;stroke-width:0.5;"/></g><g class="participant participant-head" data-participant="Browser"><rect fill="#E2E2F0" height="30.2969" rx="2.5" ry="2.5" style="stroke:#181818;stroke-width:0.5;" width="71.0391" x="67.9102" y="87.2969"/><text fill="#000000" font-family="sans-serif" font-size="14" lengthAdjust="spacing" textLength="57.0391" x="74.9102" y="107.292">Browser</text></g><g class="participant participant-tail" data-participant="Browser"><rect fill="#E2E2F0" height="30.2969" rx="2.5" ry="2.5" style="stroke:#181818;stroke-width:0.5;" width="71.0391" x="67.9102" y="1261.5703"/><text fill="#000000" font-family="sans-serif" font-size="14" lengthAdjust="spacing" textLength="57.0391" x="74.9102" y="1281.5654">Browser</text></g><g class="participant participant-head" data-participant="EHR"><rect fill="#E2E2F0" height="30.2969" rx="2.5" ry="2.5" style="stroke:#181818;stroke-width:0.5;" width="43.1006" x="181.0483" y="87.2969"/><text fill="#000000" font-family="sans-serif" font-size="14" lengthAdjust="spacing" textLength="29.1006" x="188.0483" y="107.292">EHR</text></g><g class="participant participant-tail" data-participant="EHR"><rect fill="#E2E2F0" height="30.2969" rx="2.5" ry="2.5" style="stroke:#181818;stroke-width:0.5;" width="43.1006" x="181.0483" y="1261.5703"/><text fill="#000000" font-family="sans-serif" font-size="14" lengthAdjust="spacing" textLength="29.1006" x="188.0483" y="1281.5654">EHR</text></g><g class="participant participant-head" data-participant="Knooppunt"><rect fill="#E2E2F0" height="30.2969" rx="2.5" ry="2.5" style="stroke:#181818;stroke-width:0.5;" width="90.1934" x="341.4185" y="87.2969"/><text fill="#000000" font-family="sans-serif" font-size="14" lengthAdjust="spacing" textLength="76.1934" x="348.4185" y="107.292">Knooppunt</text></g><g class="participant participant-tail" data-participant="Knooppunt"><rect fill="#E2E2F0" height="30.2969" rx="2.5" ry="2.5" style="stroke:#181818;stroke-width:0.5;" width="90.1934" x="341.4185" y="1261.5703"/><text fill="#000000" font-family="sans-serif" font-size="14" lengthAdjust="spacing" textLength="76.1934" x="348.4185" y="1281.5654">Knooppunt</text></g><g class="participant participant-head" data-participant="RemoteXIS"><rect fill="#E2E2F0" height="30.2969" rx="2.5" ry="2.5" style="stroke:#181818;stroke-width:0.5;" width="95.7031" x="441.6118" y="87.2969"/><text fill="#000000" font-family="sans-serif" font-size="14" lengthAdjust="spacing" textLength="81.7031" x="448.6118" y="107.292">Remote XIS</text></g><g class="participant participant-tail" data-participant="RemoteXIS"><rect fill="#E2E2F0" height="30.2969" rx="2.5" ry="2.5" style="stroke:#181818;stroke-width:0.5;" width="95.7031" x="441.6118" y="1261.5703"/><text fill="#000000" font-family="sans-serif" font-size="14" lengthAdjust="spacing" textLength="81.7031" x="448.6118" y="1281.5654">Remote XIS</text></g><g class="message" data-participant-1="User" data-participant-2="EHR"><polygon fill="#181818" points="190.5986,145.7266,200.5986,149.7266,190.5986,153.7266,194.5986,149.7266" style="stroke:#181818;stroke-width:1;"/><line style="stroke:#181818;stroke-width:1;" x1="38.9551" x2="196.5986" y1="149.7266" y2="149.7266"/><text fill="#000000" font-family="sans-serif" font-size="13" lengthAdjust="spacing" textLength="50.7241" x="45.9551" y="144.6606">Interact</text></g><path d="M47.9102,164.7266 L371.0454,164.7266 L371.0454,186.9922 L361.0454,196.9922 L47.9102,196.9922 L47.9102,164.7266" fill="#EEEEEE" style="stroke:#000000;stroke-width:1.5;"/><rect fill="none" height="444.5234" style="stroke:#000000;stroke-width:1.5;" width="403.7017" x="47.9102" y="164.7266"/><text fill="#000000" font-family="sans-serif" font-size="13" font-weight="bold" lengthAdjust="spacing" textLength="278.1353" x="62.9102" y="177.7935">User AuthN - OpenID Authorized Code</text><text fill="#000000" font-family="sans-serif" font-size="13" font-weight="bold" lengthAdjust="spacing" textLength="115.1084" x="62.9102" y="192.9263">(e.g. EHR login)</text><g class="message" data-participant-1="EHR" data-participant-2="EHR"><line style="stroke:#181818;stroke-width:1;" x1="202.5986" x2="244.5986" y1="233.2578" y2="233.2578"/><line style="stroke:#181818;stroke-width:1;" x1="244.5986" x2="244.5986" y1="233.2578" y2="246.2578"/><line style="stroke:#181818;stroke-width:1;" x1="203.5986" x2="244.5986" y1="246.2578" y2="246.2578"/><polygon fill="#181818" points="213.5986,242.2578,203.5986,246.2578,213.5986,250.2578,209.5986,246.2578" style="stroke:#181818;stroke-width:1;"/><text fill="#000000" font-family="sans-serif" font-size="13" lengthAdjust="spacing" textLength="126.8325" x="209.5986" y="213.0591">Make Auth Request</text><text fill="#000000" font-family="sans-serif" font-size="13" lengthAdjust="spacing" textLength="25.7905" x="209.5986" y="228.1919">URL</text></g><g class="message" data-participant-1="EHR" data-participant-2="Browser"><polygon fill="#181818" points="114.4297,286.5234,104.4297,290.5234,114.4297,294.5234,110.4297,290.5234" style="stroke:#181818;stroke-width:1;"/><line style="stroke:#181818;stroke-width:1;" x1="108.4297" x2="201.5986" y1="290.5234" y2="290.5234"/><text fill="#000000" font-family="sans-serif" font-size="13" lengthAdjust="spacing" textLength="54.4819" x="120.4297" y="270.3247">Redirect</text><text fill="#000000" font-family="sans-serif" font-size="13" lengthAdjust="spacing" textLength="39.1016" x="120.4297" y="285.4575">/Open</text></g><g class="message" data-participant-1="Browser" data-participant-2="Knooppunt"><polygon fill="#181818" points="374.5151,330.7891,384.5151,334.7891,374.5151,338.7891,378.5151,334.7891" style="stroke:#181818;stroke-width:1;"/><line style="stroke:#181818;stroke-width:1;" x1="103.4297" x2="380.5151" y1="334.7891" y2="334.7891"/><text fill="#000000" font-family="sans-serif" font-size="13" lengthAdjust="spacing" textLength="181.8794" x="110.4297" y="314.5903">OIDC Authorization Request</text><text fill="#000000" font-family="sans-serif" font-size="13" lengthAdjust="spacing" textLength="148.9478" x="110.4297" y="329.7231">(scope=openid profile)</text></g><path d="M57.9102,349.7891 L317.8672,349.7891 L317.8672,356.9219 L307.8672,366.9219 L57.9102,366.9219 L57.9102,349.7891" fill="#EEEEEE" style="stroke:#000000;stroke-width:1.5;"/><rect fill="none" height="75.3984" style="stroke:#000000;stroke-width:1.5;" width="383.7017" x="57.9102" y="349.7891"/><text fill="#000000" font-family="sans-serif" font-size="13" font-weight="bold" lengthAdjust="spacing" textLength="214.957" x="72.9102" y="362.856">GF Auth (omitted for brevity)</text><g class="message" data-participant-1="Knooppunt" data-participant-2="Browser"><polygon fill="#181818" points="114.4297,384.0547,104.4297,388.0547,114.4297,392.0547,110.4297,388.0547" style="stroke:#181818;stroke-width:1;"/><line style="stroke:#181818;stroke-width:1;stroke-dasharray:2,2;" x1="108.4297" x2="385.5151" y1="388.0547" y2="388.0547"/><text fill="#000000" font-family="sans-serif" font-size="13" lengthAdjust="spacing" textLength="152.0264" x="120.4297" y="382.9888">Request authentication</text></g><g class="message" data-participant-1="Browser" data-participant-2="Knooppunt"><polygon fill="#181818" points="374.5151,413.1875,384.5151,417.1875,374.5151,421.1875,378.5151,417.1875" style="stroke:#181818;stroke-width:1;"/><line style="stroke:#181818;stroke-width:1;" x1="103.4297" x2="380.5151" y1="417.1875" y2="417.1875"/><text fill="#000000" font-family="sans-serif" font-size="13" lengthAdjust="spacing" textLength="149.189" x="110.4297" y="412.1216">Submit auth credential</text></g><g class="message" data-participant-1="Knooppunt" data-participant-2="Browser"><polygon fill="#181818" points="114.4297,464.4531,104.4297,468.4531,114.4297,472.4531,110.4297,468.4531" style="stroke:#181818;stroke-width:1;"/><line style="stroke:#181818;stroke-width:1;stroke-dasharray:2,2;" x1="108.4297" x2="385.5151" y1="468.4531" y2="468.4531"/><text fill="#000000" font-family="sans-serif" font-size="13" lengthAdjust="spacing" textLength="134.9067" x="120.4297" y="448.2544">OIDC Auth Response</text><text fill="#000000" font-family="sans-serif" font-size="13" lengthAdjust="spacing" textLength="75.1689" x="120.4297" y="463.3872">(auth code)</text></g><g class="message" data-participant-1="Browser" data-participant-2="EHR"><polygon fill="#181818" points="190.5986,508.7188,200.5986,512.7188,190.5986,516.7188,194.5986,512.7188" style="stroke:#181818;stroke-width:1;"/><line style="stroke:#181818;stroke-width:1;" x1="103.4297" x2="196.5986" y1="512.7188" y2="512.7188"/><text fill="#000000" font-family="sans-serif" font-size="13" lengthAdjust="spacing" textLength="54.4819" x="110.4297" y="492.52">Redirect</text><text fill="#000000" font-family="sans-serif" font-size="13" lengthAdjust="spacing" textLength="75.1689" x="110.4297" y="507.6528">(auth code)</text></g><g class="message" data-participant-1="EHR" data-participant-2="Knooppunt"><polygon fill="#181818" points="374.5151,552.9844,384.5151,556.9844,374.5151,560.9844,378.5151,556.9844" style="stroke:#181818;stroke-width:1;"/><line style="stroke:#181818;stroke-width:1;" x1="202.5986" x2="380.5151" y1="556.9844" y2="556.9844"/><text fill="#000000" font-family="sans-serif" font-size="13" lengthAdjust="spacing" textLength="134.4688" x="209.5986" y="536.7856">OIDC Token Request</text><text fill="#000000" font-family="sans-serif" font-size="13" lengthAdjust="spacing" textLength="75.1689" x="209.5986" y="551.9185">(auth code)</text></g><g class="message" data-participant-1="Knooppunt" data-participant-2="EHR"><polygon fill="#181818" points="213.5986,597.25,203.5986,601.25,213.5986,605.25,209.5986,601.25" style="stroke:#181818;stroke-width:1;"/><line style="stroke:#181818;stroke-width:1;stroke-dasharray:2,2;" x1="207.5986" x2="385.5151" y1="601.25" y2="601.25"/><text fill="#000000" font-family="sans-serif" font-size="13" lengthAdjust="spacing" textLength="144.0981" x="219.5986" y="581.0513">OIDC Token Response</text><text fill="#000000" font-family="sans-serif" font-size="13" lengthAdjust="spacing" textLength="65.3237" x="219.5986" y="596.1841">(id_token)</text></g><path d="M10,623.25 L187.1963,623.25 L187.1963,630.3828 L177.1963,640.3828 L10,640.3828 L10,623.25" fill="#EEEEEE" style="stroke:#000000;stroke-width:1.5;"/><rect fill="none" height="298.7266" style="stroke:#000000;stroke-width:1.5;" width="537.3149" x="10" y="623.25"/><text fill="#000000" font-family="sans-serif" font-size="13" font-weight="bold" lengthAdjust="spacing" textLength="132.1963" x="25" y="636.3169">User data request</text><g class="message" data-participant-1="User" data-participant-2="EHR"><polygon fill="#181818" points="190.5986,672.6484,200.5986,676.6484,190.5986,680.6484,194.5986,676.6484" style="stroke:#181818;stroke-width:1;"/><line style="stroke:#181818;stroke-width:1;" x1="38.9551" x2="196.5986" y1="676.6484" y2="676.6484"/><text fill="#000000" font-family="sans-serif" font-size="13" lengthAdjust="spacing" textLength="86.8042" x="45.9551" y="656.4497">Request data</text><text fill="#000000" font-family="sans-serif" font-size="13" lengthAdjust="spacing" textLength="129.3145" x="45.9551" y="671.5825">from remote source</text></g><path d="M171.0483,691.6484 L406.5034,691.6484 L406.5034,698.7813 L396.5034,708.7813 L171.0483,708.7813 L171.0483,691.6484" fill="#EEEEEE" style="stroke:#000000;stroke-width:1.5;"/><rect fill="none" height="105.6641" style="stroke:#000000;stroke-width:1.5;" width="270.5635" x="171.0483" y="691.6484"/><text fill="#000000" font-family="sans-serif" font-size="13" font-weight="bold" lengthAdjust="spacing" textLength="190.4551" x="186.0483" y="704.7153">OAuth2 Client Credentials</text><g class="message" data-participant-1="EHR" data-participant-2="Knooppunt"><polygon fill="#181818" points="374.5151,741.0469,384.5151,745.0469,374.5151,749.0469,378.5151,745.0469" style="stroke:#181818;stroke-width:1;"/><line style="stroke:#181818;stroke-width:1;" x1="202.5986" x2="380.5151" y1="745.0469" y2="745.0469"/><text fill="#000000" font-family="sans-serif" font-size="13" lengthAdjust="spacing" textLength="150.2871" x="209.5986" y="724.8481">OAuth2 Token Request</text><text fill="#000000" font-family="sans-serif" font-size="13" lengthAdjust="spacing" textLength="65.3237" x="209.5986" y="739.981">(id_token)</text></g><g class="message" data-participant-1="Knooppunt" data-participant-2="EHR"><polygon fill="#181818" points="213.5986,785.3125,203.5986,789.3125,213.5986,793.3125,209.5986,789.3125" style="stroke:#181818;stroke-width:1;"/><line style="stroke:#181818;stroke-width:1;stroke-dasharray:2,2;" x1="207.5986" x2="385.5151" y1="789.3125" y2="789.3125"/><text fill="#000000" font-family="sans-serif" font-size="13" lengthAdjust="spacing" textLength="159.9165" x="219.5986" y="769.1138">OAuth2 Token Response</text><text fill="#000000" font-family="sans-serif" font-size="13" lengthAdjust="spacing" textLength="94.8975" x="219.5986" y="784.2466">(access token)</text></g><g class="message" data-participant-1="EHR" data-participant-2="RemoteXIS"><polygon fill="#181818" points="477.4634,836.5781,487.4634,840.5781,477.4634,844.5781,481.4634,840.5781" style="stroke:#181818;stroke-width:1;"/><line style="stroke:#181818;stroke-width:1;" x1="202.5986" x2="483.4634" y1="840.5781" y2="840.5781"/><text fill="#000000" font-family="sans-serif" font-size="13" lengthAdjust="spacing" textLength="84.8745" x="209.5986" y="820.3794">Data request</text><text fill="#000000" font-family="sans-serif" font-size="13" lengthAdjust="spacing" textLength="94.8975" x="209.5986" y="835.5122">(access token)</text></g><g class="message" data-participant-1="RemoteXIS" data-participant-2="EHR"><polygon fill="#181818" points="213.5986,880.8438,203.5986,884.8438,213.5986,888.8438,209.5986,884.8438" style="stroke:#181818;stroke-width:1;"/><line style="stroke:#181818;stroke-width:1;stroke-dasharray:2,2;" x1="207.5986" x2="488.4634" y1="884.8438" y2="884.8438"/><text fill="#000000" font-family="sans-serif" font-size="13" lengthAdjust="spacing" textLength="94.5039" x="219.5986" y="864.645">Data response</text><text fill="#000000" font-family="sans-serif" font-size="13" lengthAdjust="spacing" textLength="68.9102" x="219.5986" y="879.7778">(e.g. FHIR)</text></g><g class="message" data-participant-1="EHR" data-participant-2="User"><polygon fill="#181818" points="49.9551,909.9766,39.9551,913.9766,49.9551,917.9766,45.9551,913.9766" style="stroke:#181818;stroke-width:1;"/><line style="stroke:#181818;stroke-width:1;stroke-dasharray:2,2;" x1="43.9551" x2="201.5986" y1="913.9766" y2="913.9766"/><text fill="#000000" font-family="sans-serif" font-size="13" lengthAdjust="spacing" textLength="94.5039" x="55.9551" y="908.9106">Data response</text></g><path d="M161.0483,935.9766 L371.4048,935.9766 L371.4048,943.1094 L361.4048,953.1094 L161.0483,953.1094 L161.0483,935.9766" fill="#EEEEEE" style="stroke:#000000;stroke-width:1.5;"/><rect fill="none" height="309.5938" style="stroke:#000000;stroke-width:1.5;" width="386.2666" x="161.0483" y="935.9766"/><text fill="#000000" font-family="sans-serif" font-size="13" font-weight="bold" lengthAdjust="spacing" textLength="165.3564" x="176.0483" y="949.0435">Non-user data request</text><g class="message" data-participant-1="EHR" data-participant-2="EHR"><line style="stroke:#181818;stroke-width:1;" x1="202.5986" x2="244.5986" y1="989.375" y2="989.375"/><line style="stroke:#181818;stroke-width:1;" x1="244.5986" x2="244.5986" y1="989.375" y2="1002.375"/><line style="stroke:#181818;stroke-width:1;" x1="203.5986" x2="244.5986" y1="1002.375" y2="1002.375"/><polygon fill="#181818" points="213.5986,998.375,203.5986,1002.375,213.5986,1006.375,209.5986,1002.375" style="stroke:#181818;stroke-width:1;"/><text fill="#000000" font-family="sans-serif" font-size="13" lengthAdjust="spacing" textLength="106.6533" x="209.5986" y="969.1763">System-initiated</text><text fill="#000000" font-family="sans-serif" font-size="13" lengthAdjust="spacing" textLength="83.1162" x="209.5986" y="984.3091">data request</text></g><path d="M171.0483,1017.375 L406.5034,1017.375 L406.5034,1024.5078 L396.5034,1034.5078 L171.0483,1034.5078 L171.0483,1017.375" fill="#EEEEEE" style="stroke:#000000;stroke-width:1.5;"/><rect fill="none" height="90.5313" style="stroke:#000000;stroke-width:1.5;" width="270.5635" x="171.0483" y="1017.375"/><text fill="#000000" font-family="sans-serif" font-size="13" font-weight="bold" lengthAdjust="spacing" textLength="190.4551" x="186.0483" y="1030.4419">OAuth2 Client Credentials</text><g class="message" data-participant-1="EHR" data-participant-2="Knooppunt"><polygon fill="#181818" points="374.5151,1051.6406,384.5151,1055.6406,374.5151,1059.6406,378.5151,1055.6406" style="stroke:#181818;stroke-width:1;"/><line style="stroke:#181818;stroke-width:1;" x1="202.5986" x2="380.5151" y1="1055.6406" y2="1055.6406"/><text fill="#000000" font-family="sans-serif" font-size="13" lengthAdjust="spacing" textLength="150.2871" x="209.5986" y="1050.5747">OAuth2 Token Request</text></g><g class="message" data-participant-1="Knooppunt" data-participant-2="EHR"><polygon fill="#181818" points="213.5986,1095.9063,203.5986,1099.9063,213.5986,1103.9063,209.5986,1099.9063" style="stroke:#181818;stroke-width:1;"/><line style="stroke:#181818;stroke-width:1;stroke-dasharray:2,2;" x1="207.5986" x2="385.5151" y1="1099.9063" y2="1099.9063"/><text fill="#000000" font-family="sans-serif" font-size="13" lengthAdjust="spacing" textLength="159.9165" x="219.5986" y="1079.7075">OAuth2 Token Response</text><text fill="#000000" font-family="sans-serif" font-size="13" lengthAdjust="spacing" textLength="94.8975" x="219.5986" y="1094.8403">(access token)</text></g><g class="message" data-participant-1="EHR" data-participant-2="RemoteXIS"><polygon fill="#181818" points="477.4634,1147.1719,487.4634,1151.1719,477.4634,1155.1719,481.4634,1151.1719" style="stroke:#181818;stroke-width:1;"/><line style="stroke:#181818;stroke-width:1;" x1="202.5986" x2="483.4634" y1="1151.1719" y2="1151.1719"/><text fill="#000000" font-family="sans-serif" font-size="13" lengthAdjust="spacing" textLength="84.8745" x="209.5986" y="1130.9731">Data request</text><text fill="#000000" font-family="sans-serif" font-size="13" lengthAdjust="spacing" textLength="94.8975" x="209.5986" y="1146.106">(access token)</text></g><g class="message" data-participant-1="RemoteXIS" data-participant-2="EHR"><polygon fill="#181818" points="213.5986,1191.4375,203.5986,1195.4375,213.5986,1199.4375,209.5986,1195.4375" style="stroke:#181818;stroke-width:1;"/><line style="stroke:#181818;stroke-width:1;stroke-dasharray:2,2;" x1="207.5986" x2="488.4634" y1="1195.4375" y2="1195.4375"/><text fill="#000000" font-family="sans-serif" font-size="13" lengthAdjust="spacing" textLength="94.5039" x="219.5986" y="1175.2388">Data response</text><text fill="#000000" font-family="sans-serif" font-size="13" lengthAdjust="spacing" textLength="68.9102" x="219.5986" y="1190.3716">(e.g. FHIR)</text></g><g class="message" data-participant-1="EHR" data-participant-2="EHR"><line style="stroke:#181818;stroke-width:1;" x1="202.5986" x2="244.5986" y1="1224.5703" y2="1224.5703"/><line style="stroke:#181818;stroke-width:1;" x1="244.5986" x2="244.5986" y1="1224.5703" y2="1237.5703"/><line style="stroke:#181818;stroke-width:1;" x1="203.5986" x2="244.5986" y1="1237.5703" y2="1237.5703"/><polygon fill="#181818" points="213.5986,1233.5703,203.5986,1237.5703,213.5986,1241.5703,209.5986,1237.5703" style="stroke:#181818;stroke-width:1;"/><text fill="#000000" font-family="sans-serif" font-size="13" lengthAdjust="spacing" textLength="83.2432" x="209.5986" y="1219.5044">Process data</text></g><!--SRC=[rLCxRzim4DxvAmwPx44fq3502hHsqWXjuaAkWGm60aOwkqGadafIBT9VtoEfK8yuMvSAy73qT_SzZdJArGWVE_S3jLEbT8eqRF5dXxf4M2jvDB8HGfQE3Emi6j5Amq3LIktWaw7VyxEhcs9IVz54RTjf9oR71JRay3xVWhHm5YlWyam8JmFP1py9BY3N3WtpYwEXhWqQWjuxo63JeixNeIIZ_c05AwfmhnTuVZmF_JKTbLuAuC-NQUgjV8gsMGYRjMwlTyNNCQxtnjW2AsMmPCWxJnX0B_yoC1baw2PVhvAS66QQlx0bjNZ9FwqgQ0qTL8rB4SP5Rv-lewG5DSevTdFWq1yD_bBkENhmty2NpMG68f2JPQQsDnHlkqSc2qrG6gnyfwn35-eggdkBCRbbRjkIjZxwE8dNi9m75PCVqfn3- -1VvVcTdd2SuwnjgYwIJFgID5KzE7-s5C7Qw49LqaamaI4CtSqqnsWzRAyFXXe6XnjhgJCbZdQuyNcyXrMjE4bOfKHjMiGfcx5fRdJGUthtlTTfyx28iaHhOJGXBRINCBp12rYF4ZZPF807whufKOPdTtsJ5wE5CdWNhyi4FLx17UciExc6oPlTFbk7JQQqua3vUUprA_m_ti7_dFiBzfkXCD9d5KB_2m00]--></g></svg>